<mxfile host="app.diagrams.net" modified="2024-03-21T04:04:58.189Z" agent="Mozilla/5.0 (Windows NT 10.0; Win64; x64) AppleWebKit/537.36 (KHTML, like Gecko) Chrome/122.0.0.0 Safari/537.36" etag="oGGu2d7cD10vp76Ue1R9" version="24.0.7" type="device">
  <diagram name="Page-1" id="YW4kbduUACCd_ylAxfzm">
    <mxGraphModel dx="1827" dy="1706" grid="1" gridSize="10" guides="1" tooltips="1" connect="1" arrows="1" fold="1" page="1" pageScale="1" pageWidth="827" pageHeight="1169" math="0" shadow="0">
      <root>
        <mxCell id="0" />
        <mxCell id="1" parent="0" />
        <mxCell id="uYVosKpST3AzjdCSCV1S-1" value="Student" style="rounded=0;whiteSpace=wrap;html=1;" parent="1" vertex="1">
          <mxGeometry x="160" y="280" width="120" height="60" as="geometry" />
        </mxCell>
        <mxCell id="uYVosKpST3AzjdCSCV1S-2" value="&amp;nbsp;Date_of_birth" style="ellipse;whiteSpace=wrap;html=1;" parent="1" vertex="1">
          <mxGeometry x="270" y="175" width="90" height="60" as="geometry" />
        </mxCell>
        <mxCell id="uYVosKpST3AzjdCSCV1S-3" value="&amp;nbsp;Student_name" style="ellipse;whiteSpace=wrap;html=1;" parent="1" vertex="1">
          <mxGeometry x="330" y="230" width="100" height="50" as="geometry" />
        </mxCell>
        <mxCell id="uYVosKpST3AzjdCSCV1S-4" value="&amp;nbsp;First_name" style="ellipse;whiteSpace=wrap;html=1;" parent="1" vertex="1">
          <mxGeometry x="360" y="160" width="80" height="50" as="geometry" />
        </mxCell>
        <mxCell id="uYVosKpST3AzjdCSCV1S-5" value=" Last_name" style="ellipse;whiteSpace=wrap;html=1;" parent="1" vertex="1">
          <mxGeometry x="450" y="210" width="80" height="50" as="geometry" />
        </mxCell>
        <mxCell id="uYVosKpST3AzjdCSCV1S-6" value="&lt;u&gt;Student_id&lt;/u&gt;" style="ellipse;whiteSpace=wrap;html=1;" parent="1" vertex="1">
          <mxGeometry x="420" y="410" width="90" height="40" as="geometry" />
        </mxCell>
        <mxCell id="uYVosKpST3AzjdCSCV1S-7" value=" Age" style="ellipse;whiteSpace=wrap;html=1;align=center;dashed=1;" parent="1" vertex="1">
          <mxGeometry x="320" y="410" width="90" height="40" as="geometry" />
        </mxCell>
        <mxCell id="uYVosKpST3AzjdCSCV1S-9" value=" Contact_number" style="ellipse;whiteSpace=wrap;html=1;" parent="1" vertex="1">
          <mxGeometry x="110" y="490" width="110" height="40" as="geometry" />
        </mxCell>
        <mxCell id="uYVosKpST3AzjdCSCV1S-10" value="&amp;nbsp;Gender" style="ellipse;whiteSpace=wrap;html=1;" parent="1" vertex="1">
          <mxGeometry x="90" y="420" width="90" height="40" as="geometry" />
        </mxCell>
        <mxCell id="uYVosKpST3AzjdCSCV1S-11" value=" Address" style="ellipse;whiteSpace=wrap;html=1;" parent="1" vertex="1">
          <mxGeometry y="380" width="90" height="40" as="geometry" />
        </mxCell>
        <mxCell id="uYVosKpST3AzjdCSCV1S-12" value="Email" style="ellipse;whiteSpace=wrap;html=1;" parent="1" vertex="1">
          <mxGeometry x="30" y="235" width="90" height="40" as="geometry" />
        </mxCell>
        <mxCell id="uYVosKpST3AzjdCSCV1S-13" value="&amp;nbsp;District" style="ellipse;whiteSpace=wrap;html=1;" parent="1" vertex="1">
          <mxGeometry x="-80" y="490" width="90" height="40" as="geometry" />
        </mxCell>
        <mxCell id="uYVosKpST3AzjdCSCV1S-14" value=" City" style="ellipse;whiteSpace=wrap;html=1;" parent="1" vertex="1">
          <mxGeometry x="-180" y="450" width="90" height="40" as="geometry" />
        </mxCell>
        <mxCell id="uYVosKpST3AzjdCSCV1S-15" value="  Street_&lt;br/&gt; name/no" style="ellipse;whiteSpace=wrap;html=1;" parent="1" vertex="1">
          <mxGeometry x="-180" y="380" width="90" height="40" as="geometry" />
        </mxCell>
        <mxCell id="uYVosKpST3AzjdCSCV1S-16" value="  House_no" style="ellipse;whiteSpace=wrap;html=1;" parent="1" vertex="1">
          <mxGeometry x="-170" y="330" width="90" height="40" as="geometry" />
        </mxCell>
        <mxCell id="uYVosKpST3AzjdCSCV1S-17" value="" style="endArrow=none;html=1;rounded=0;" parent="1" edge="1">
          <mxGeometry width="50" height="50" relative="1" as="geometry">
            <mxPoint x="280" y="310" as="sourcePoint" />
            <mxPoint x="330" y="260" as="targetPoint" />
          </mxGeometry>
        </mxCell>
        <mxCell id="uYVosKpST3AzjdCSCV1S-18" value="" style="endArrow=none;html=1;rounded=0;entryX=0.324;entryY=0.959;entryDx=0;entryDy=0;entryPerimeter=0;" parent="1" target="uYVosKpST3AzjdCSCV1S-4" edge="1">
          <mxGeometry width="50" height="50" relative="1" as="geometry">
            <mxPoint x="375" y="230" as="sourcePoint" />
            <mxPoint x="425" y="180" as="targetPoint" />
          </mxGeometry>
        </mxCell>
        <mxCell id="uYVosKpST3AzjdCSCV1S-19" value="" style="endArrow=none;html=1;rounded=0;entryX=-0.004;entryY=0.59;entryDx=0;entryDy=0;entryPerimeter=0;" parent="1" target="uYVosKpST3AzjdCSCV1S-5" edge="1">
          <mxGeometry width="50" height="50" relative="1" as="geometry">
            <mxPoint x="430" y="250" as="sourcePoint" />
            <mxPoint x="480" y="200" as="targetPoint" />
            <Array as="points">
              <mxPoint x="430" y="250" />
            </Array>
          </mxGeometry>
        </mxCell>
        <mxCell id="uYVosKpST3AzjdCSCV1S-20" value="" style="endArrow=none;html=1;rounded=0;entryX=0.344;entryY=0.981;entryDx=0;entryDy=0;entryPerimeter=0;" parent="1" target="uYVosKpST3AzjdCSCV1S-2" edge="1">
          <mxGeometry width="50" height="50" relative="1" as="geometry">
            <mxPoint x="250" y="280" as="sourcePoint" />
            <mxPoint x="300" y="230" as="targetPoint" />
          </mxGeometry>
        </mxCell>
        <mxCell id="uYVosKpST3AzjdCSCV1S-21" value="" style="endArrow=none;html=1;rounded=0;entryX=0.029;entryY=0.297;entryDx=0;entryDy=0;entryPerimeter=0;" parent="1" target="uYVosKpST3AzjdCSCV1S-6" edge="1">
          <mxGeometry width="50" height="50" relative="1" as="geometry">
            <mxPoint x="280" y="335" as="sourcePoint" />
            <mxPoint x="330" y="285" as="targetPoint" />
          </mxGeometry>
        </mxCell>
        <mxCell id="uYVosKpST3AzjdCSCV1S-22" value="" style="endArrow=none;html=1;rounded=0;entryX=0.232;entryY=0.09;entryDx=0;entryDy=0;entryPerimeter=0;" parent="1" target="uYVosKpST3AzjdCSCV1S-7" edge="1">
          <mxGeometry width="50" height="50" relative="1" as="geometry">
            <mxPoint x="265" y="340" as="sourcePoint" />
            <mxPoint x="305" y="400" as="targetPoint" />
          </mxGeometry>
        </mxCell>
        <mxCell id="uYVosKpST3AzjdCSCV1S-23" value="" style="endArrow=none;html=1;rounded=0;entryX=0.548;entryY=0.004;entryDx=0;entryDy=0;entryPerimeter=0;" parent="1" target="uYVosKpST3AzjdCSCV1S-9" edge="1">
          <mxGeometry width="50" height="50" relative="1" as="geometry">
            <mxPoint x="220" y="340" as="sourcePoint" />
            <mxPoint x="270" y="290" as="targetPoint" />
          </mxGeometry>
        </mxCell>
        <mxCell id="uYVosKpST3AzjdCSCV1S-25" value="" style="endArrow=none;html=1;rounded=0;entryX=0;entryY=0.5;entryDx=0;entryDy=0;exitX=0.976;exitY=0.317;exitDx=0;exitDy=0;exitPerimeter=0;" parent="1" source="uYVosKpST3AzjdCSCV1S-11" target="uYVosKpST3AzjdCSCV1S-1" edge="1">
          <mxGeometry width="50" height="50" relative="1" as="geometry">
            <mxPoint x="90" y="350" as="sourcePoint" />
            <mxPoint x="140" y="300" as="targetPoint" />
          </mxGeometry>
        </mxCell>
        <mxCell id="uYVosKpST3AzjdCSCV1S-26" value="" style="endArrow=none;html=1;rounded=0;exitX=0.812;exitY=0.103;exitDx=0;exitDy=0;exitPerimeter=0;" parent="1" source="uYVosKpST3AzjdCSCV1S-10" edge="1">
          <mxGeometry width="50" height="50" relative="1" as="geometry">
            <mxPoint x="140" y="390" as="sourcePoint" />
            <mxPoint x="190" y="340" as="targetPoint" />
          </mxGeometry>
        </mxCell>
        <mxCell id="uYVosKpST3AzjdCSCV1S-27" value="" style="endArrow=none;html=1;rounded=0;entryX=1;entryY=0.5;entryDx=0;entryDy=0;" parent="1" target="uYVosKpST3AzjdCSCV1S-12" edge="1">
          <mxGeometry width="50" height="50" relative="1" as="geometry">
            <mxPoint x="180" y="280" as="sourcePoint" />
            <mxPoint x="230" y="230" as="targetPoint" />
          </mxGeometry>
        </mxCell>
        <mxCell id="uYVosKpST3AzjdCSCV1S-28" value="" style="endArrow=none;html=1;rounded=0;exitX=0.792;exitY=0.099;exitDx=0;exitDy=0;exitPerimeter=0;entryX=0.08;entryY=0.774;entryDx=0;entryDy=0;entryPerimeter=0;" parent="1" source="uYVosKpST3AzjdCSCV1S-13" target="uYVosKpST3AzjdCSCV1S-11" edge="1">
          <mxGeometry width="50" height="50" relative="1" as="geometry">
            <mxPoint x="-30" y="420" as="sourcePoint" />
            <mxPoint x="20" y="370" as="targetPoint" />
          </mxGeometry>
        </mxCell>
        <mxCell id="uYVosKpST3AzjdCSCV1S-29" value="" style="endArrow=none;html=1;rounded=0;entryX=0.012;entryY=0.631;entryDx=0;entryDy=0;entryPerimeter=0;exitX=0.931;exitY=0.235;exitDx=0;exitDy=0;exitPerimeter=0;" parent="1" source="uYVosKpST3AzjdCSCV1S-14" target="uYVosKpST3AzjdCSCV1S-11" edge="1">
          <mxGeometry width="50" height="50" relative="1" as="geometry">
            <mxPoint x="-70" y="400" as="sourcePoint" />
            <mxPoint x="-20" y="350" as="targetPoint" />
          </mxGeometry>
        </mxCell>
        <mxCell id="uYVosKpST3AzjdCSCV1S-31" value="" style="endArrow=none;html=1;rounded=0;entryX=0.212;entryY=0.082;entryDx=0;entryDy=0;entryPerimeter=0;exitX=0.949;exitY=0.713;exitDx=0;exitDy=0;exitPerimeter=0;" parent="1" source="uYVosKpST3AzjdCSCV1S-16" target="uYVosKpST3AzjdCSCV1S-11" edge="1">
          <mxGeometry width="50" height="50" relative="1" as="geometry">
            <mxPoint x="-20" y="300" as="sourcePoint" />
            <mxPoint x="30" y="250" as="targetPoint" />
          </mxGeometry>
        </mxCell>
        <mxCell id="uYVosKpST3AzjdCSCV1S-32" value="Parent" style="shape=ext;margin=3;double=1;whiteSpace=wrap;html=1;align=center;" parent="1" vertex="1">
          <mxGeometry x="10" y="110" width="130" height="40" as="geometry" />
        </mxCell>
        <mxCell id="uYVosKpST3AzjdCSCV1S-33" value=" Address" style="ellipse;whiteSpace=wrap;html=1;" parent="1" vertex="1">
          <mxGeometry x="-160" y="140" width="90" height="40" as="geometry" />
        </mxCell>
        <mxCell id="uYVosKpST3AzjdCSCV1S-34" value=" NIC" style="ellipse;whiteSpace=wrap;html=1;" parent="1" vertex="1">
          <mxGeometry x="-170" y="80" width="90" height="40" as="geometry" />
        </mxCell>
        <mxCell id="uYVosKpST3AzjdCSCV1S-36" value=" Relationship" style="ellipse;whiteSpace=wrap;html=1;" parent="1" vertex="1">
          <mxGeometry x="-20" y="-30" width="90" height="40" as="geometry" />
        </mxCell>
        <mxCell id="uYVosKpST3AzjdCSCV1S-37" value=" Guardian_name" style="ellipse;whiteSpace=wrap;html=1;" parent="1" vertex="1">
          <mxGeometry x="100" y="-30" width="90" height="40" as="geometry" />
        </mxCell>
        <mxCell id="uYVosKpST3AzjdCSCV1S-38" value=" Telephone_num" style="ellipse;whiteSpace=wrap;html=1;" parent="1" vertex="1">
          <mxGeometry x="200" y="10" width="90" height="40" as="geometry" />
        </mxCell>
        <mxCell id="uYVosKpST3AzjdCSCV1S-39" value="" style="endArrow=none;html=1;rounded=0;entryX=0;entryY=1;entryDx=0;entryDy=0;" parent="1" target="uYVosKpST3AzjdCSCV1S-32" edge="1">
          <mxGeometry width="50" height="50" relative="1" as="geometry">
            <mxPoint x="-70" y="160" as="sourcePoint" />
            <mxPoint x="-20" y="110" as="targetPoint" />
          </mxGeometry>
        </mxCell>
        <mxCell id="uYVosKpST3AzjdCSCV1S-40" value="" style="endArrow=none;html=1;rounded=0;entryX=0;entryY=0.25;entryDx=0;entryDy=0;" parent="1" target="uYVosKpST3AzjdCSCV1S-32" edge="1">
          <mxGeometry width="50" height="50" relative="1" as="geometry">
            <mxPoint x="-80" y="100" as="sourcePoint" />
            <mxPoint x="-30" y="50" as="targetPoint" />
          </mxGeometry>
        </mxCell>
        <mxCell id="uYVosKpST3AzjdCSCV1S-41" value="" style="endArrow=none;html=1;rounded=0;entryX=0.034;entryY=-0.022;entryDx=0;entryDy=0;entryPerimeter=0;exitX=0.907;exitY=0.741;exitDx=0;exitDy=0;exitPerimeter=0;" parent="1" target="uYVosKpST3AzjdCSCV1S-32" edge="1" source="gN2tiasaSfKQ29LLUgoF-8">
          <mxGeometry width="50" height="50" relative="1" as="geometry">
            <mxPoint x="-20" y="40" as="sourcePoint" />
            <mxPoint x="30" y="-10" as="targetPoint" />
          </mxGeometry>
        </mxCell>
        <mxCell id="uYVosKpST3AzjdCSCV1S-42" value="" style="endArrow=none;html=1;rounded=0;entryX=0.25;entryY=0;entryDx=0;entryDy=0;" parent="1" target="uYVosKpST3AzjdCSCV1S-32" edge="1">
          <mxGeometry width="50" height="50" relative="1" as="geometry">
            <mxPoint x="30" y="10" as="sourcePoint" />
            <mxPoint x="80" y="-40" as="targetPoint" />
          </mxGeometry>
        </mxCell>
        <mxCell id="uYVosKpST3AzjdCSCV1S-43" value="" style="endArrow=none;html=1;rounded=0;entryX=0.379;entryY=1.009;entryDx=0;entryDy=0;entryPerimeter=0;" parent="1" target="uYVosKpST3AzjdCSCV1S-37" edge="1">
          <mxGeometry width="50" height="50" relative="1" as="geometry">
            <mxPoint x="100" y="110" as="sourcePoint" />
            <mxPoint x="150" y="60" as="targetPoint" />
          </mxGeometry>
        </mxCell>
        <mxCell id="uYVosKpST3AzjdCSCV1S-44" value="" style="endArrow=none;html=1;rounded=0;entryX=0;entryY=1;entryDx=0;entryDy=0;" parent="1" target="uYVosKpST3AzjdCSCV1S-38" edge="1">
          <mxGeometry width="50" height="50" relative="1" as="geometry">
            <mxPoint x="140" y="110" as="sourcePoint" />
            <mxPoint x="190" y="60" as="targetPoint" />
          </mxGeometry>
        </mxCell>
        <mxCell id="uYVosKpST3AzjdCSCV1S-45" value="has" style="shape=rhombus;perimeter=rhombusPerimeter;whiteSpace=wrap;html=1;align=center;" parent="1" vertex="1">
          <mxGeometry x="160" y="180" width="70" height="40" as="geometry" />
        </mxCell>
        <mxCell id="uYVosKpST3AzjdCSCV1S-46" value="" style="endArrow=none;html=1;rounded=0;entryX=1;entryY=0.5;entryDx=0;entryDy=0;exitX=0.5;exitY=0;exitDx=0;exitDy=0;" parent="1" source="uYVosKpST3AzjdCSCV1S-45" target="uYVosKpST3AzjdCSCV1S-32" edge="1">
          <mxGeometry relative="1" as="geometry">
            <mxPoint x="340" y="130" as="sourcePoint" />
            <mxPoint x="210" y="200" as="targetPoint" />
            <Array as="points">
              <mxPoint x="195" y="130" />
            </Array>
          </mxGeometry>
        </mxCell>
        <mxCell id="uYVosKpST3AzjdCSCV1S-47" value="1" style="resizable=0;html=1;whiteSpace=wrap;align=right;verticalAlign=bottom;" parent="uYVosKpST3AzjdCSCV1S-46" connectable="0" vertex="1">
          <mxGeometry x="1" relative="1" as="geometry">
            <mxPoint x="20" as="offset" />
          </mxGeometry>
        </mxCell>
        <mxCell id="uYVosKpST3AzjdCSCV1S-48" value="" style="shape=link;html=1;rounded=0;entryX=0.303;entryY=-0.021;entryDx=0;entryDy=0;entryPerimeter=0;exitX=0.5;exitY=1;exitDx=0;exitDy=0;" parent="1" source="uYVosKpST3AzjdCSCV1S-45" target="uYVosKpST3AzjdCSCV1S-1" edge="1">
          <mxGeometry relative="1" as="geometry">
            <mxPoint x="190" y="220" as="sourcePoint" />
            <mxPoint x="350" y="220" as="targetPoint" />
          </mxGeometry>
        </mxCell>
        <mxCell id="uYVosKpST3AzjdCSCV1S-49" value="N" style="resizable=0;html=1;whiteSpace=wrap;align=right;verticalAlign=bottom;" parent="uYVosKpST3AzjdCSCV1S-48" connectable="0" vertex="1">
          <mxGeometry x="1" relative="1" as="geometry">
            <mxPoint x="14" y="-4" as="offset" />
          </mxGeometry>
        </mxCell>
        <mxCell id="uYVosKpST3AzjdCSCV1S-80" value="" style="endArrow=none;html=1;rounded=0;entryX=0;entryY=0.5;entryDx=0;entryDy=0;exitX=0.986;exitY=0.334;exitDx=0;exitDy=0;exitPerimeter=0;" parent="1" source="uYVosKpST3AzjdCSCV1S-15" target="uYVosKpST3AzjdCSCV1S-11" edge="1">
          <mxGeometry width="50" height="50" relative="1" as="geometry">
            <mxPoint x="-90" y="400" as="sourcePoint" />
            <mxPoint x="-40" y="350" as="targetPoint" />
          </mxGeometry>
        </mxCell>
        <mxCell id="uYVosKpST3AzjdCSCV1S-107" value="class" style="whiteSpace=wrap;html=1;align=center;" parent="1" vertex="1">
          <mxGeometry x="600" y="80" width="100" height="40" as="geometry" />
        </mxCell>
        <mxCell id="uYVosKpST3AzjdCSCV1S-108" value="&lt;u&gt;CID&lt;/u&gt;" style="ellipse;whiteSpace=wrap;html=1;" parent="1" vertex="1">
          <mxGeometry x="460" y="70" width="80" height="50" as="geometry" />
        </mxCell>
        <mxCell id="uYVosKpST3AzjdCSCV1S-109" value="Year" style="ellipse;whiteSpace=wrap;html=1;" parent="1" vertex="1">
          <mxGeometry x="520" y="5" width="80" height="50" as="geometry" />
        </mxCell>
        <mxCell id="uYVosKpST3AzjdCSCV1S-110" value="Start date" style="ellipse;whiteSpace=wrap;html=1;" parent="1" vertex="1">
          <mxGeometry x="400" y="-10" width="80" height="50" as="geometry" />
        </mxCell>
        <mxCell id="uYVosKpST3AzjdCSCV1S-111" value="End date" style="ellipse;whiteSpace=wrap;html=1;" parent="1" vertex="1">
          <mxGeometry x="480" y="-70" width="80" height="50" as="geometry" />
        </mxCell>
        <mxCell id="uYVosKpST3AzjdCSCV1S-112" value="" style="line;strokeWidth=1;rotatable=0;dashed=0;labelPosition=right;align=left;verticalAlign=middle;spacingTop=0;spacingLeft=6;points=[];portConstraint=eastwest;" parent="1" vertex="1">
          <mxGeometry x="540" y="90" width="60" height="10" as="geometry" />
        </mxCell>
        <mxCell id="uYVosKpST3AzjdCSCV1S-113" value="" style="endArrow=none;html=1;rounded=0;entryX=0.802;entryY=0.91;entryDx=0;entryDy=0;entryPerimeter=0;" parent="1" target="uYVosKpST3AzjdCSCV1S-109" edge="1">
          <mxGeometry width="50" height="50" relative="1" as="geometry">
            <mxPoint x="600" y="80" as="sourcePoint" />
            <mxPoint x="650" y="30" as="targetPoint" />
          </mxGeometry>
        </mxCell>
        <mxCell id="uYVosKpST3AzjdCSCV1S-114" value="" style="endArrow=none;html=1;rounded=0;entryX=0.976;entryY=0.66;entryDx=0;entryDy=0;entryPerimeter=0;" parent="1" target="uYVosKpST3AzjdCSCV1S-110" edge="1">
          <mxGeometry width="50" height="50" relative="1" as="geometry">
            <mxPoint x="520" y="30" as="sourcePoint" />
            <mxPoint x="570" y="-20" as="targetPoint" />
          </mxGeometry>
        </mxCell>
        <mxCell id="uYVosKpST3AzjdCSCV1S-115" value="" style="endArrow=none;html=1;rounded=0;entryX=0.609;entryY=0.981;entryDx=0;entryDy=0;entryPerimeter=0;exitX=0.277;exitY=0.044;exitDx=0;exitDy=0;exitPerimeter=0;" parent="1" source="uYVosKpST3AzjdCSCV1S-109" target="uYVosKpST3AzjdCSCV1S-111" edge="1">
          <mxGeometry width="50" height="50" relative="1" as="geometry">
            <mxPoint x="540" y="10" as="sourcePoint" />
            <mxPoint x="590" y="-40" as="targetPoint" />
          </mxGeometry>
        </mxCell>
        <mxCell id="uYVosKpST3AzjdCSCV1S-116" value="Enroll" style="shape=rhombus;perimeter=rhombusPerimeter;whiteSpace=wrap;html=1;align=center;" parent="1" vertex="1">
          <mxGeometry x="610" y="170" width="120" height="60" as="geometry" />
        </mxCell>
        <mxCell id="uYVosKpST3AzjdCSCV1S-117" value="" style="endArrow=none;html=1;rounded=0;entryX=0.687;entryY=0.997;entryDx=0;entryDy=0;entryPerimeter=0;exitX=0.5;exitY=0;exitDx=0;exitDy=0;" parent="1" source="uYVosKpST3AzjdCSCV1S-116" target="uYVosKpST3AzjdCSCV1S-107" edge="1">
          <mxGeometry relative="1" as="geometry">
            <mxPoint x="667" y="170" as="sourcePoint" />
            <mxPoint x="827" y="170" as="targetPoint" />
          </mxGeometry>
        </mxCell>
        <mxCell id="uYVosKpST3AzjdCSCV1S-118" value="N" style="resizable=0;html=1;whiteSpace=wrap;align=right;verticalAlign=bottom;" parent="uYVosKpST3AzjdCSCV1S-117" connectable="0" vertex="1">
          <mxGeometry x="1" relative="1" as="geometry">
            <mxPoint x="1" y="20" as="offset" />
          </mxGeometry>
        </mxCell>
        <mxCell id="uYVosKpST3AzjdCSCV1S-119" value="" style="endArrow=none;html=1;rounded=0;entryX=0.998;entryY=0.665;entryDx=0;entryDy=0;entryPerimeter=0;" parent="1" target="uYVosKpST3AzjdCSCV1S-1" edge="1">
          <mxGeometry relative="1" as="geometry">
            <mxPoint x="670" y="229.53" as="sourcePoint" />
            <mxPoint x="670" y="340" as="targetPoint" />
            <Array as="points">
              <mxPoint x="670" y="320" />
            </Array>
          </mxGeometry>
        </mxCell>
        <mxCell id="uYVosKpST3AzjdCSCV1S-120" value="M" style="resizable=0;html=1;whiteSpace=wrap;align=right;verticalAlign=bottom;" parent="uYVosKpST3AzjdCSCV1S-119" connectable="0" vertex="1">
          <mxGeometry x="1" relative="1" as="geometry">
            <mxPoint x="30" as="offset" />
          </mxGeometry>
        </mxCell>
        <mxCell id="uYVosKpST3AzjdCSCV1S-121" value="Subject" style="rounded=0;whiteSpace=wrap;html=1;" parent="1" vertex="1">
          <mxGeometry x="930" y="70" width="120" height="60" as="geometry" />
        </mxCell>
        <mxCell id="uYVosKpST3AzjdCSCV1S-123" value="&lt;u&gt;Subject ID&lt;/u&gt;" style="ellipse;whiteSpace=wrap;html=1;" parent="1" vertex="1">
          <mxGeometry x="1010" y="-80" width="90" height="40" as="geometry" />
        </mxCell>
        <mxCell id="uYVosKpST3AzjdCSCV1S-124" value="Subject name" style="ellipse;whiteSpace=wrap;html=1;" parent="1" vertex="1">
          <mxGeometry x="1060" y="-20" width="90" height="45" as="geometry" />
        </mxCell>
        <mxCell id="uYVosKpST3AzjdCSCV1S-125" value="Term" style="ellipse;whiteSpace=wrap;html=1;" parent="1" vertex="1">
          <mxGeometry x="640" y="5" width="70" height="40" as="geometry" />
        </mxCell>
        <mxCell id="uYVosKpST3AzjdCSCV1S-126" value="" style="endArrow=none;html=1;rounded=0;entryX=0.5;entryY=1;entryDx=0;entryDy=0;" parent="1" target="uYVosKpST3AzjdCSCV1S-125" edge="1">
          <mxGeometry width="50" height="50" relative="1" as="geometry">
            <mxPoint x="660" y="80" as="sourcePoint" />
            <mxPoint x="710" y="30" as="targetPoint" />
          </mxGeometry>
        </mxCell>
        <mxCell id="uYVosKpST3AzjdCSCV1S-127" value="Date" style="ellipse;whiteSpace=wrap;html=1;" parent="1" vertex="1">
          <mxGeometry x="640" y="-70" width="80" height="50" as="geometry" />
        </mxCell>
        <mxCell id="uYVosKpST3AzjdCSCV1S-128" value="Start date" style="ellipse;whiteSpace=wrap;html=1;" parent="1" vertex="1">
          <mxGeometry x="550" y="-130" width="80" height="50" as="geometry" />
        </mxCell>
        <mxCell id="uYVosKpST3AzjdCSCV1S-129" value="End date" style="ellipse;whiteSpace=wrap;html=1;" parent="1" vertex="1">
          <mxGeometry x="685" y="-150" width="80" height="50" as="geometry" />
        </mxCell>
        <mxCell id="uYVosKpST3AzjdCSCV1S-130" value="" style="endArrow=none;html=1;rounded=0;entryX=0.5;entryY=1;entryDx=0;entryDy=0;" parent="1" target="uYVosKpST3AzjdCSCV1S-127" edge="1">
          <mxGeometry width="50" height="50" relative="1" as="geometry">
            <mxPoint x="680" y="5" as="sourcePoint" />
            <mxPoint x="730" y="-45" as="targetPoint" />
          </mxGeometry>
        </mxCell>
        <mxCell id="uYVosKpST3AzjdCSCV1S-131" value="" style="endArrow=none;html=1;rounded=0;entryX=0.405;entryY=1.008;entryDx=0;entryDy=0;entryPerimeter=0;exitX=0.738;exitY=0.068;exitDx=0;exitDy=0;exitPerimeter=0;" parent="1" source="uYVosKpST3AzjdCSCV1S-127" target="uYVosKpST3AzjdCSCV1S-129" edge="1">
          <mxGeometry width="50" height="50" relative="1" as="geometry">
            <mxPoint x="700" y="-70" as="sourcePoint" />
            <mxPoint x="750" y="-120" as="targetPoint" />
          </mxGeometry>
        </mxCell>
        <mxCell id="uYVosKpST3AzjdCSCV1S-133" value="" style="endArrow=none;html=1;rounded=0;entryX=0.776;entryY=0.921;entryDx=0;entryDy=0;entryPerimeter=0;exitX=0.028;exitY=0.308;exitDx=0;exitDy=0;exitPerimeter=0;" parent="1" source="uYVosKpST3AzjdCSCV1S-127" target="uYVosKpST3AzjdCSCV1S-128" edge="1">
          <mxGeometry width="50" height="50" relative="1" as="geometry">
            <mxPoint x="640" y="-50" as="sourcePoint" />
            <mxPoint x="690" y="-100" as="targetPoint" />
          </mxGeometry>
        </mxCell>
        <mxCell id="uYVosKpST3AzjdCSCV1S-134" value="" style="endArrow=none;html=1;rounded=0;exitX=0.325;exitY=-0.003;exitDx=0;exitDy=0;exitPerimeter=0;entryX=0.5;entryY=1;entryDx=0;entryDy=0;" parent="1" source="uYVosKpST3AzjdCSCV1S-121" edge="1" target="uYVosKpST3AzjdCSCV1S-123">
          <mxGeometry width="50" height="50" relative="1" as="geometry">
            <mxPoint x="970" y="65" as="sourcePoint" />
            <mxPoint x="970" y="5" as="targetPoint" />
          </mxGeometry>
        </mxCell>
        <mxCell id="uYVosKpST3AzjdCSCV1S-135" value="" style="endArrow=none;html=1;rounded=0;" parent="1" edge="1">
          <mxGeometry width="50" height="50" relative="1" as="geometry">
            <mxPoint x="1050" y="75" as="sourcePoint" />
            <mxPoint x="1100" y="25" as="targetPoint" />
          </mxGeometry>
        </mxCell>
        <mxCell id="uYVosKpST3AzjdCSCV1S-136" value="marks" style="ellipse;whiteSpace=wrap;html=1;" parent="1" vertex="1">
          <mxGeometry x="860" y="170" width="90" height="50" as="geometry" />
        </mxCell>
        <mxCell id="uYVosKpST3AzjdCSCV1S-137" value="" style="endArrow=none;html=1;rounded=0;entryX=0.039;entryY=1;entryDx=0;entryDy=0;entryPerimeter=0;exitX=0.596;exitY=0.023;exitDx=0;exitDy=0;exitPerimeter=0;" parent="1" source="uYVosKpST3AzjdCSCV1S-136" target="uYVosKpST3AzjdCSCV1S-121" edge="1">
          <mxGeometry width="50" height="50" relative="1" as="geometry">
            <mxPoint x="980" y="180" as="sourcePoint" />
            <mxPoint x="1030" y="130" as="targetPoint" />
          </mxGeometry>
        </mxCell>
        <mxCell id="uYVosKpST3AzjdCSCV1S-138" value="Academic staff" style="rounded=0;whiteSpace=wrap;html=1;" parent="1" vertex="1">
          <mxGeometry x="960" y="320" width="120" height="60" as="geometry" />
        </mxCell>
        <mxCell id="uYVosKpST3AzjdCSCV1S-140" value="&lt;u&gt;AID&lt;/u&gt;" style="ellipse;whiteSpace=wrap;html=1;" parent="1" vertex="1">
          <mxGeometry x="805" y="408" width="90" height="40" as="geometry" />
        </mxCell>
        <mxCell id="uYVosKpST3AzjdCSCV1S-141" value="Name" style="ellipse;whiteSpace=wrap;html=1;" parent="1" vertex="1">
          <mxGeometry x="880" y="440" width="90" height="40" as="geometry" />
        </mxCell>
        <mxCell id="uYVosKpST3AzjdCSCV1S-143" value="NIC" style="ellipse;whiteSpace=wrap;html=1;" parent="1" vertex="1">
          <mxGeometry x="1050" y="480" width="90" height="40" as="geometry" />
        </mxCell>
        <mxCell id="uYVosKpST3AzjdCSCV1S-144" value="Address" style="ellipse;whiteSpace=wrap;html=1;" parent="1" vertex="1">
          <mxGeometry x="1090" y="430" width="90" height="40" as="geometry" />
        </mxCell>
        <mxCell id="uYVosKpST3AzjdCSCV1S-146" value="Gender" style="ellipse;whiteSpace=wrap;html=1;" parent="1" vertex="1">
          <mxGeometry x="1130" y="380" width="90" height="40" as="geometry" />
        </mxCell>
        <mxCell id="uYVosKpST3AzjdCSCV1S-147" value="Age" style="ellipse;whiteSpace=wrap;html=1;align=center;dashed=1;" parent="1" vertex="1">
          <mxGeometry x="1130" y="330" width="100" height="40" as="geometry" />
        </mxCell>
        <mxCell id="uYVosKpST3AzjdCSCV1S-148" value="Telephone No" style="ellipse;whiteSpace=wrap;html=1;" parent="1" vertex="1">
          <mxGeometry x="1030" y="220" width="90" height="40" as="geometry" />
        </mxCell>
        <mxCell id="uYVosKpST3AzjdCSCV1S-149" value="DOB" style="ellipse;whiteSpace=wrap;html=1;" parent="1" vertex="1">
          <mxGeometry x="1190" y="280" width="90" height="40" as="geometry" />
        </mxCell>
        <mxCell id="uYVosKpST3AzjdCSCV1S-150" value="" style="endArrow=none;html=1;rounded=0;entryX=0.001;entryY=0.855;entryDx=0;entryDy=0;entryPerimeter=0;exitX=0.959;exitY=0.244;exitDx=0;exitDy=0;exitPerimeter=0;" parent="1" target="uYVosKpST3AzjdCSCV1S-138" edge="1" source="uYVosKpST3AzjdCSCV1S-140">
          <mxGeometry relative="1" as="geometry">
            <mxPoint x="917" y="379.23" as="sourcePoint" />
            <mxPoint x="1077" y="379.23" as="targetPoint" />
          </mxGeometry>
        </mxCell>
        <mxCell id="uYVosKpST3AzjdCSCV1S-151" value="" style="endArrow=none;html=1;rounded=0;entryX=0.126;entryY=1.007;entryDx=0;entryDy=0;entryPerimeter=0;exitX=0.604;exitY=0.001;exitDx=0;exitDy=0;exitPerimeter=0;" parent="1" source="uYVosKpST3AzjdCSCV1S-141" target="uYVosKpST3AzjdCSCV1S-138" edge="1">
          <mxGeometry width="50" height="50" relative="1" as="geometry">
            <mxPoint x="940" y="440" as="sourcePoint" />
            <mxPoint x="990" y="390" as="targetPoint" />
            <Array as="points" />
          </mxGeometry>
        </mxCell>
        <mxCell id="uYVosKpST3AzjdCSCV1S-152" value="" style="endArrow=none;html=1;rounded=0;entryX=0.666;entryY=0.998;entryDx=0;entryDy=0;entryPerimeter=0;exitX=0.5;exitY=0;exitDx=0;exitDy=0;" parent="1" source="uYVosKpST3AzjdCSCV1S-143" target="uYVosKpST3AzjdCSCV1S-138" edge="1">
          <mxGeometry width="50" height="50" relative="1" as="geometry">
            <mxPoint x="1040" y="450" as="sourcePoint" />
            <mxPoint x="1090" y="400" as="targetPoint" />
          </mxGeometry>
        </mxCell>
        <mxCell id="uYVosKpST3AzjdCSCV1S-153" value="" style="endArrow=none;html=1;rounded=0;entryX=0.95;entryY=1.007;entryDx=0;entryDy=0;entryPerimeter=0;exitX=0.198;exitY=0.102;exitDx=0;exitDy=0;exitPerimeter=0;" parent="1" source="uYVosKpST3AzjdCSCV1S-144" target="uYVosKpST3AzjdCSCV1S-138" edge="1">
          <mxGeometry width="50" height="50" relative="1" as="geometry">
            <mxPoint x="1110" y="435" as="sourcePoint" />
            <mxPoint x="1160" y="385" as="targetPoint" />
          </mxGeometry>
        </mxCell>
        <mxCell id="uYVosKpST3AzjdCSCV1S-154" value="" style="endArrow=none;html=1;rounded=0;entryX=0;entryY=0.5;entryDx=0;entryDy=0;" parent="1" target="uYVosKpST3AzjdCSCV1S-147" edge="1">
          <mxGeometry width="50" height="50" relative="1" as="geometry">
            <mxPoint x="1080" y="350" as="sourcePoint" />
            <mxPoint x="1130" y="300" as="targetPoint" />
          </mxGeometry>
        </mxCell>
        <mxCell id="uYVosKpST3AzjdCSCV1S-155" value="" style="endArrow=none;html=1;rounded=0;entryX=0.043;entryY=0.294;entryDx=0;entryDy=0;entryPerimeter=0;" parent="1" target="uYVosKpST3AzjdCSCV1S-146" edge="1">
          <mxGeometry width="50" height="50" relative="1" as="geometry">
            <mxPoint x="1080" y="370" as="sourcePoint" />
            <mxPoint x="1130" y="320" as="targetPoint" />
          </mxGeometry>
        </mxCell>
        <mxCell id="uYVosKpST3AzjdCSCV1S-156" value="" style="endArrow=none;html=1;rounded=0;entryX=0.092;entryY=0.798;entryDx=0;entryDy=0;entryPerimeter=0;" parent="1" target="uYVosKpST3AzjdCSCV1S-149" edge="1">
          <mxGeometry width="50" height="50" relative="1" as="geometry">
            <mxPoint x="1080" y="335" as="sourcePoint" />
            <mxPoint x="1130" y="285" as="targetPoint" />
          </mxGeometry>
        </mxCell>
        <mxCell id="uYVosKpST3AzjdCSCV1S-157" value="" style="endArrow=none;html=1;rounded=0;entryX=0.323;entryY=0.965;entryDx=0;entryDy=0;entryPerimeter=0;" parent="1" target="uYVosKpST3AzjdCSCV1S-148" edge="1">
          <mxGeometry width="50" height="50" relative="1" as="geometry">
            <mxPoint x="1040" y="320" as="sourcePoint" />
            <mxPoint x="1090" y="270" as="targetPoint" />
          </mxGeometry>
        </mxCell>
        <mxCell id="uYVosKpST3AzjdCSCV1S-162" value="Teach &amp;amp;&lt;div&gt;give mark&lt;/div&gt;" style="shape=rhombus;perimeter=rhombusPerimeter;whiteSpace=wrap;html=1;align=center;" parent="1" vertex="1">
          <mxGeometry x="960" y="190" width="70" height="40" as="geometry" />
        </mxCell>
        <mxCell id="uYVosKpST3AzjdCSCV1S-163" value="" style="endArrow=none;html=1;rounded=0;entryX=0.5;entryY=1;entryDx=0;entryDy=0;exitX=0.294;exitY=0.003;exitDx=0;exitDy=0;exitPerimeter=0;" parent="1" source="uYVosKpST3AzjdCSCV1S-138" target="uYVosKpST3AzjdCSCV1S-162" edge="1">
          <mxGeometry width="50" height="50" relative="1" as="geometry">
            <mxPoint x="1000" y="320" as="sourcePoint" />
            <mxPoint x="1050" y="270" as="targetPoint" />
          </mxGeometry>
        </mxCell>
        <mxCell id="uYVosKpST3AzjdCSCV1S-165" value="has" style="shape=rhombus;perimeter=rhombusPerimeter;whiteSpace=wrap;html=1;align=center;" parent="1" vertex="1">
          <mxGeometry x="780" y="80" width="80" height="40" as="geometry" />
        </mxCell>
        <mxCell id="uYVosKpST3AzjdCSCV1S-166" value="" style="endArrow=none;html=1;rounded=0;entryX=0;entryY=0.5;entryDx=0;entryDy=0;" parent="1" target="uYVosKpST3AzjdCSCV1S-165" edge="1">
          <mxGeometry width="50" height="50" relative="1" as="geometry">
            <mxPoint x="700" y="100" as="sourcePoint" />
            <mxPoint x="750" y="50" as="targetPoint" />
          </mxGeometry>
        </mxCell>
        <mxCell id="uYVosKpST3AzjdCSCV1S-167" value="" style="endArrow=none;html=1;rounded=0;entryX=0;entryY=0.5;entryDx=0;entryDy=0;" parent="1" target="uYVosKpST3AzjdCSCV1S-121" edge="1">
          <mxGeometry width="50" height="50" relative="1" as="geometry">
            <mxPoint x="860" y="100" as="sourcePoint" />
            <mxPoint x="910" y="50" as="targetPoint" />
          </mxGeometry>
        </mxCell>
        <mxCell id="uYVosKpST3AzjdCSCV1S-168" value="1" style="text;html=1;align=center;verticalAlign=middle;resizable=0;points=[];autosize=1;strokeColor=none;fillColor=none;" parent="1" vertex="1">
          <mxGeometry x="985" y="288" width="30" height="30" as="geometry" />
        </mxCell>
        <mxCell id="uYVosKpST3AzjdCSCV1S-170" value="1" style="text;html=1;align=center;verticalAlign=middle;resizable=0;points=[];autosize=1;strokeColor=none;fillColor=none;" parent="1" vertex="1">
          <mxGeometry x="705" y="78" width="30" height="30" as="geometry" />
        </mxCell>
        <mxCell id="uYVosKpST3AzjdCSCV1S-171" value="M" style="text;html=1;align=center;verticalAlign=middle;resizable=0;points=[];autosize=1;strokeColor=none;fillColor=none;" parent="1" vertex="1">
          <mxGeometry x="895" y="78" width="30" height="30" as="geometry" />
        </mxCell>
        <mxCell id="uYVosKpST3AzjdCSCV1S-174" value="Guide" style="shape=rhombus;perimeter=rhombusPerimeter;whiteSpace=wrap;html=1;align=center;" parent="1" vertex="1">
          <mxGeometry x="754" y="180" width="73" height="45" as="geometry" />
        </mxCell>
        <mxCell id="uYVosKpST3AzjdCSCV1S-175" value="" style="endArrow=none;html=1;rounded=0;entryX=0.5;entryY=1;entryDx=0;entryDy=0;exitX=-0.004;exitY=0.347;exitDx=0;exitDy=0;exitPerimeter=0;" parent="1" source="uYVosKpST3AzjdCSCV1S-138" target="uYVosKpST3AzjdCSCV1S-174" edge="1">
          <mxGeometry width="50" height="50" relative="1" as="geometry">
            <mxPoint x="792" y="390" as="sourcePoint" />
            <mxPoint x="790" y="225" as="targetPoint" />
            <Array as="points">
              <mxPoint x="790" y="340" />
            </Array>
          </mxGeometry>
        </mxCell>
        <mxCell id="uYVosKpST3AzjdCSCV1S-176" value="" style="endArrow=none;html=1;rounded=0;exitX=0.5;exitY=0;exitDx=0;exitDy=0;entryX=0.904;entryY=1.008;entryDx=0;entryDy=0;entryPerimeter=0;" parent="1" source="uYVosKpST3AzjdCSCV1S-174" target="uYVosKpST3AzjdCSCV1S-107" edge="1">
          <mxGeometry width="50" height="50" relative="1" as="geometry">
            <mxPoint x="795" y="185" as="sourcePoint" />
            <mxPoint x="650" y="160" as="targetPoint" />
            <Array as="points">
              <mxPoint x="790" y="160" />
              <mxPoint x="690" y="160" />
            </Array>
          </mxGeometry>
        </mxCell>
        <mxCell id="uYVosKpST3AzjdCSCV1S-177" value="1" style="text;html=1;align=center;verticalAlign=middle;resizable=0;points=[];autosize=1;strokeColor=none;fillColor=none;" parent="1" vertex="1">
          <mxGeometry x="935" y="318" width="30" height="30" as="geometry" />
        </mxCell>
        <mxCell id="uYVosKpST3AzjdCSCV1S-178" value="1" style="text;html=1;align=center;verticalAlign=middle;resizable=0;points=[];autosize=1;strokeColor=none;fillColor=none;" parent="1" vertex="1">
          <mxGeometry x="685" y="118" width="30" height="30" as="geometry" />
        </mxCell>
        <mxCell id="uYVosKpST3AzjdCSCV1S-179" value="" style="shape=link;html=1;rounded=0;exitX=0.5;exitY=0;exitDx=0;exitDy=0;entryX=0.542;entryY=1.002;entryDx=0;entryDy=0;entryPerimeter=0;" parent="1" source="uYVosKpST3AzjdCSCV1S-162" target="uYVosKpST3AzjdCSCV1S-121" edge="1">
          <mxGeometry relative="1" as="geometry">
            <mxPoint x="830" y="132.82" as="sourcePoint" />
            <mxPoint x="990" y="132.82" as="targetPoint" />
          </mxGeometry>
        </mxCell>
        <mxCell id="uYVosKpST3AzjdCSCV1S-180" value="N" style="resizable=0;html=1;whiteSpace=wrap;align=right;verticalAlign=bottom;" parent="uYVosKpST3AzjdCSCV1S-179" connectable="0" vertex="1">
          <mxGeometry x="1" relative="1" as="geometry">
            <mxPoint y="18" as="offset" />
          </mxGeometry>
        </mxCell>
        <mxCell id="sS_7L0u-TkuIXS7oVzNz-1" value="Non-Academic Staff" style="rounded=0;whiteSpace=wrap;html=1;" parent="1" vertex="1">
          <mxGeometry x="950" y="580" width="120" height="60" as="geometry" />
        </mxCell>
        <mxCell id="sS_7L0u-TkuIXS7oVzNz-2" value="&lt;u&gt;NAID&lt;/u&gt;" style="ellipse;whiteSpace=wrap;html=1;" parent="1" vertex="1">
          <mxGeometry x="780" y="533" width="100" height="55" as="geometry" />
        </mxCell>
        <mxCell id="sS_7L0u-TkuIXS7oVzNz-3" value="Name" style="ellipse;whiteSpace=wrap;html=1;" parent="1" vertex="1">
          <mxGeometry x="800" y="660" width="100" height="60" as="geometry" />
        </mxCell>
        <mxCell id="sS_7L0u-TkuIXS7oVzNz-4" value="DOB" style="ellipse;whiteSpace=wrap;html=1;" parent="1" vertex="1">
          <mxGeometry x="895" y="730" width="100" height="60" as="geometry" />
        </mxCell>
        <mxCell id="sS_7L0u-TkuIXS7oVzNz-5" value="Gender&lt;span style=&quot;color: rgba(0, 0, 0, 0); font-family: monospace; font-size: 0px; text-align: start; text-wrap: nowrap;&quot;&gt;%3CmxGraphModel%3E%3Croot%3E%3CmxCell%20id%3D%220%22%2F%3E%3CmxCell%20id%3D%221%22%20parent%3D%220%22%2F%3E%3CmxCell%20id%3D%222%22%20value%3D%22Name%22%20style%3D%22ellipse%3BwhiteSpace%3Dwrap%3Bhtml%3D1%3B%22%20vertex%3D%221%22%20parent%3D%221%22%3E%3CmxGeometry%20x%3D%22800%22%20y%3D%22660%22%20width%3D%22100%22%20height%3D%2260%22%20as%3D%22geometry%22%2F%3E%3C%2FmxCell%3E%3C%2Froot%3E%3C%2FmxGraphModel%3E&lt;/span&gt;" style="ellipse;whiteSpace=wrap;html=1;" parent="1" vertex="1">
          <mxGeometry x="1030" y="710" width="100" height="60" as="geometry" />
        </mxCell>
        <mxCell id="sS_7L0u-TkuIXS7oVzNz-6" value="Address" style="ellipse;whiteSpace=wrap;html=1;" parent="1" vertex="1">
          <mxGeometry x="1150" y="660" width="100" height="60" as="geometry" />
        </mxCell>
        <mxCell id="sS_7L0u-TkuIXS7oVzNz-7" value="" style="endArrow=none;html=1;rounded=0;entryX=0;entryY=1;entryDx=0;entryDy=0;" parent="1" target="sS_7L0u-TkuIXS7oVzNz-1" edge="1">
          <mxGeometry width="50" height="50" relative="1" as="geometry">
            <mxPoint x="895" y="680" as="sourcePoint" />
            <mxPoint x="945" y="630" as="targetPoint" />
          </mxGeometry>
        </mxCell>
        <mxCell id="sS_7L0u-TkuIXS7oVzNz-8" value="" style="endArrow=none;html=1;rounded=0;entryX=0.25;entryY=1;entryDx=0;entryDy=0;" parent="1" target="sS_7L0u-TkuIXS7oVzNz-1" edge="1">
          <mxGeometry width="50" height="50" relative="1" as="geometry">
            <mxPoint x="947.5" y="730" as="sourcePoint" />
            <mxPoint x="1002.5" y="690" as="targetPoint" />
          </mxGeometry>
        </mxCell>
        <mxCell id="sS_7L0u-TkuIXS7oVzNz-9" value="" style="endArrow=none;html=1;rounded=0;entryX=0.75;entryY=1;entryDx=0;entryDy=0;" parent="1" target="sS_7L0u-TkuIXS7oVzNz-1" edge="1">
          <mxGeometry width="50" height="50" relative="1" as="geometry">
            <mxPoint x="1077.5" y="710" as="sourcePoint" />
            <mxPoint x="1132.5" y="670" as="targetPoint" />
          </mxGeometry>
        </mxCell>
        <mxCell id="sS_7L0u-TkuIXS7oVzNz-10" value="" style="endArrow=none;html=1;rounded=0;entryX=1;entryY=1;entryDx=0;entryDy=0;" parent="1" target="sS_7L0u-TkuIXS7oVzNz-1" edge="1">
          <mxGeometry width="50" height="50" relative="1" as="geometry">
            <mxPoint x="1160" y="670" as="sourcePoint" />
            <mxPoint x="1215" y="630" as="targetPoint" />
          </mxGeometry>
        </mxCell>
        <mxCell id="sS_7L0u-TkuIXS7oVzNz-11" value="" style="endArrow=none;html=1;rounded=0;entryX=0;entryY=0.5;entryDx=0;entryDy=0;exitX=0.991;exitY=0.554;exitDx=0;exitDy=0;exitPerimeter=0;" parent="1" target="sS_7L0u-TkuIXS7oVzNz-1" edge="1" source="sS_7L0u-TkuIXS7oVzNz-2">
          <mxGeometry width="50" height="50" relative="1" as="geometry">
            <mxPoint x="880" y="605" as="sourcePoint" />
            <mxPoint x="935" y="565" as="targetPoint" />
          </mxGeometry>
        </mxCell>
        <mxCell id="sS_7L0u-TkuIXS7oVzNz-17" value="Password" style="ellipse;whiteSpace=wrap;html=1;" parent="1" vertex="1">
          <mxGeometry x="-90" y="260" width="100" height="45" as="geometry" />
        </mxCell>
        <mxCell id="sS_7L0u-TkuIXS7oVzNz-18" value="" style="endArrow=none;html=1;rounded=0;entryX=0;entryY=0.25;entryDx=0;entryDy=0;" parent="1" target="uYVosKpST3AzjdCSCV1S-1" edge="1">
          <mxGeometry width="50" height="50" relative="1" as="geometry">
            <mxPoint x="10" y="285" as="sourcePoint" />
            <mxPoint x="60" y="235" as="targetPoint" />
          </mxGeometry>
        </mxCell>
        <mxCell id="sS_7L0u-TkuIXS7oVzNz-19" value="Password" style="ellipse;whiteSpace=wrap;html=1;" parent="1" vertex="1">
          <mxGeometry x="-90" y="195" width="100" height="45" as="geometry" />
        </mxCell>
        <mxCell id="sS_7L0u-TkuIXS7oVzNz-20" value="" style="endArrow=none;html=1;rounded=0;entryX=0.415;entryY=0.998;entryDx=0;entryDy=0;entryPerimeter=0;" parent="1" target="uYVosKpST3AzjdCSCV1S-32" edge="1">
          <mxGeometry width="50" height="50" relative="1" as="geometry">
            <mxPoint x="10" y="220" as="sourcePoint" />
            <mxPoint x="60" y="170" as="targetPoint" />
          </mxGeometry>
        </mxCell>
        <mxCell id="sS_7L0u-TkuIXS7oVzNz-21" value="Password" style="ellipse;whiteSpace=wrap;html=1;" parent="1" vertex="1">
          <mxGeometry x="1140" y="225" width="100" height="45" as="geometry" />
        </mxCell>
        <mxCell id="sS_7L0u-TkuIXS7oVzNz-22" value="" style="endArrow=none;html=1;rounded=0;entryX=0;entryY=1;entryDx=0;entryDy=0;" parent="1" target="sS_7L0u-TkuIXS7oVzNz-21" edge="1">
          <mxGeometry width="50" height="50" relative="1" as="geometry">
            <mxPoint x="1080" y="320" as="sourcePoint" />
            <mxPoint x="1130" y="270" as="targetPoint" />
          </mxGeometry>
        </mxCell>
        <mxCell id="sS_7L0u-TkuIXS7oVzNz-23" value="Password" style="ellipse;whiteSpace=wrap;html=1;" parent="1" vertex="1">
          <mxGeometry x="1200" y="613" width="100" height="45" as="geometry" />
        </mxCell>
        <mxCell id="sS_7L0u-TkuIXS7oVzNz-24" value="" style="endArrow=none;html=1;rounded=0;entryX=0;entryY=0.5;entryDx=0;entryDy=0;" parent="1" target="sS_7L0u-TkuIXS7oVzNz-23" edge="1">
          <mxGeometry width="50" height="50" relative="1" as="geometry">
            <mxPoint x="1070" y="610" as="sourcePoint" />
            <mxPoint x="1120" y="560" as="targetPoint" />
          </mxGeometry>
        </mxCell>
        <mxCell id="gN2tiasaSfKQ29LLUgoF-1" value="Time table" style="rounded=0;whiteSpace=wrap;html=1;" vertex="1" parent="1">
          <mxGeometry x="310" y="600" width="120" height="60" as="geometry" />
        </mxCell>
        <mxCell id="gN2tiasaSfKQ29LLUgoF-2" value="" style="endArrow=none;html=1;rounded=0;" edge="1" parent="1" target="gN2tiasaSfKQ29LLUgoF-3">
          <mxGeometry width="50" height="50" relative="1" as="geometry">
            <mxPoint x="1050" y="108" as="sourcePoint" />
            <mxPoint x="600" y="920" as="targetPoint" />
            <Array as="points">
              <mxPoint x="1330" y="108" />
              <mxPoint x="1330" y="920" />
            </Array>
          </mxGeometry>
        </mxCell>
        <mxCell id="gN2tiasaSfKQ29LLUgoF-3" value="Provide" style="shape=rhombus;perimeter=rhombusPerimeter;whiteSpace=wrap;html=1;align=center;" vertex="1" parent="1">
          <mxGeometry x="540" y="890" width="120" height="60" as="geometry" />
        </mxCell>
        <mxCell id="gN2tiasaSfKQ29LLUgoF-4" value="" style="endArrow=none;html=1;rounded=0;exitX=0.5;exitY=1;exitDx=0;exitDy=0;" edge="1" parent="1" source="gN2tiasaSfKQ29LLUgoF-1">
          <mxGeometry relative="1" as="geometry">
            <mxPoint x="80" y="920" as="sourcePoint" />
            <mxPoint x="540" y="920" as="targetPoint" />
            <Array as="points">
              <mxPoint x="370" y="920" />
            </Array>
          </mxGeometry>
        </mxCell>
        <mxCell id="gN2tiasaSfKQ29LLUgoF-6" value="Time" style="ellipse;whiteSpace=wrap;html=1;align=center;" vertex="1" parent="1">
          <mxGeometry x="50" y="610" width="100" height="40" as="geometry" />
        </mxCell>
        <mxCell id="gN2tiasaSfKQ29LLUgoF-7" value="" style="endArrow=none;html=1;rounded=0;" edge="1" parent="1">
          <mxGeometry relative="1" as="geometry">
            <mxPoint x="150" y="629.73" as="sourcePoint" />
            <mxPoint x="310" y="629.73" as="targetPoint" />
          </mxGeometry>
        </mxCell>
        <mxCell id="gN2tiasaSfKQ29LLUgoF-8" value="&lt;span style=&quot;border-bottom: 1px dotted&quot;&gt;PID&lt;/span&gt;" style="ellipse;whiteSpace=wrap;html=1;align=center;" vertex="1" parent="1">
          <mxGeometry x="-120" y="15" width="100" height="40" as="geometry" />
        </mxCell>
        <mxCell id="gN2tiasaSfKQ29LLUgoF-9" value="Create" style="shape=rhombus;perimeter=rhombusPerimeter;whiteSpace=wrap;html=1;align=center;" vertex="1" parent="1">
          <mxGeometry x="595" y="600" width="120" height="60" as="geometry" />
        </mxCell>
        <mxCell id="gN2tiasaSfKQ29LLUgoF-11" value="" style="shape=link;html=1;rounded=0;exitX=1;exitY=0.5;exitDx=0;exitDy=0;entryX=0.036;entryY=0.489;entryDx=0;entryDy=0;entryPerimeter=0;" edge="1" parent="1" source="gN2tiasaSfKQ29LLUgoF-1" target="gN2tiasaSfKQ29LLUgoF-9">
          <mxGeometry relative="1" as="geometry">
            <mxPoint x="435" y="629.41" as="sourcePoint" />
            <mxPoint x="595" y="629.41" as="targetPoint" />
          </mxGeometry>
        </mxCell>
        <mxCell id="gN2tiasaSfKQ29LLUgoF-13" value="" style="line;strokeWidth=1;rotatable=0;dashed=0;labelPosition=right;align=left;verticalAlign=middle;spacingTop=0;spacingLeft=6;points=[];portConstraint=eastwest;" vertex="1" parent="1">
          <mxGeometry x="715" y="625" width="235" height="10" as="geometry" />
        </mxCell>
        <mxCell id="gN2tiasaSfKQ29LLUgoF-14" value="1" style="text;html=1;align=center;verticalAlign=middle;resizable=0;points=[];autosize=1;strokeColor=none;fillColor=none;" vertex="1" parent="1">
          <mxGeometry x="915" y="608" width="30" height="30" as="geometry" />
        </mxCell>
        <mxCell id="gN2tiasaSfKQ29LLUgoF-15" value="M" style="text;html=1;align=center;verticalAlign=middle;resizable=0;points=[];autosize=1;strokeColor=none;fillColor=none;" vertex="1" parent="1">
          <mxGeometry x="435" y="598" width="30" height="30" as="geometry" />
        </mxCell>
        <mxCell id="gN2tiasaSfKQ29LLUgoF-16" value="Provid" style="shape=rhombus;perimeter=rhombusPerimeter;whiteSpace=wrap;html=1;align=center;" vertex="1" parent="1">
          <mxGeometry x="660" y="330" width="120" height="60" as="geometry" />
        </mxCell>
        <mxCell id="gN2tiasaSfKQ29LLUgoF-17" value="" style="endArrow=none;html=1;rounded=0;entryX=0.5;entryY=1;entryDx=0;entryDy=0;" edge="1" parent="1" target="gN2tiasaSfKQ29LLUgoF-16">
          <mxGeometry relative="1" as="geometry">
            <mxPoint x="400" y="600" as="sourcePoint" />
            <mxPoint x="930" y="560" as="targetPoint" />
            <Array as="points">
              <mxPoint x="400" y="560" />
              <mxPoint x="720" y="560" />
            </Array>
          </mxGeometry>
        </mxCell>
        <mxCell id="gN2tiasaSfKQ29LLUgoF-18" value="" style="line;strokeWidth=1;rotatable=0;dashed=0;labelPosition=right;align=left;verticalAlign=middle;spacingTop=0;spacingLeft=6;points=[];portConstraint=eastwest;" vertex="1" parent="1">
          <mxGeometry x="780" y="355" width="180" height="10" as="geometry" />
        </mxCell>
        <mxCell id="gN2tiasaSfKQ29LLUgoF-19" value="Provid" style="shape=rhombus;perimeter=rhombusPerimeter;whiteSpace=wrap;html=1;align=center;" vertex="1" parent="1">
          <mxGeometry x="190" y="450" width="120" height="60" as="geometry" />
        </mxCell>
        <mxCell id="gN2tiasaSfKQ29LLUgoF-20" value="" style="endArrow=none;html=1;rounded=0;entryX=0.422;entryY=0.015;entryDx=0;entryDy=0;entryPerimeter=0;" edge="1" parent="1" target="gN2tiasaSfKQ29LLUgoF-1">
          <mxGeometry relative="1" as="geometry">
            <mxPoint x="250" y="509.44" as="sourcePoint" />
            <mxPoint x="410" y="509.44" as="targetPoint" />
            <Array as="points">
              <mxPoint x="360" y="509" />
            </Array>
          </mxGeometry>
        </mxCell>
        <mxCell id="gN2tiasaSfKQ29LLUgoF-21" value="" style="endArrow=none;html=1;rounded=0;entryX=0.75;entryY=1;entryDx=0;entryDy=0;" edge="1" parent="1" target="uYVosKpST3AzjdCSCV1S-1">
          <mxGeometry relative="1" as="geometry">
            <mxPoint x="250" y="449.35" as="sourcePoint" />
            <mxPoint x="410" y="449.35" as="targetPoint" />
          </mxGeometry>
        </mxCell>
        <mxCell id="gN2tiasaSfKQ29LLUgoF-22" value="M" style="text;html=1;align=center;verticalAlign=middle;resizable=0;points=[];autosize=1;strokeColor=none;fillColor=none;" vertex="1" parent="1">
          <mxGeometry x="925" y="348" width="30" height="30" as="geometry" />
        </mxCell>
        <mxCell id="gN2tiasaSfKQ29LLUgoF-23" value="1" style="text;html=1;align=center;verticalAlign=middle;resizable=0;points=[];autosize=1;strokeColor=none;fillColor=none;" vertex="1" parent="1">
          <mxGeometry x="395" y="568" width="30" height="30" as="geometry" />
        </mxCell>
        <mxCell id="gN2tiasaSfKQ29LLUgoF-24" value="1" style="text;html=1;align=center;verticalAlign=middle;resizable=0;points=[];autosize=1;strokeColor=none;fillColor=none;" vertex="1" parent="1">
          <mxGeometry x="335" y="568" width="30" height="30" as="geometry" />
        </mxCell>
        <mxCell id="gN2tiasaSfKQ29LLUgoF-25" value="M" style="text;html=1;align=center;verticalAlign=middle;resizable=0;points=[];autosize=1;strokeColor=none;fillColor=none;" vertex="1" parent="1">
          <mxGeometry x="225" y="338" width="30" height="30" as="geometry" />
        </mxCell>
        <mxCell id="gN2tiasaSfKQ29LLUgoF-26" value="1" style="text;html=1;align=center;verticalAlign=middle;resizable=0;points=[];autosize=1;strokeColor=none;fillColor=none;" vertex="1" parent="1">
          <mxGeometry x="335" y="658" width="30" height="30" as="geometry" />
        </mxCell>
        <mxCell id="gN2tiasaSfKQ29LLUgoF-27" value="M" style="text;html=1;align=center;verticalAlign=middle;resizable=0;points=[];autosize=1;strokeColor=none;fillColor=none;" vertex="1" parent="1">
          <mxGeometry x="1055" y="78" width="30" height="30" as="geometry" />
        </mxCell>
        <mxCell id="gN2tiasaSfKQ29LLUgoF-28" value="Telephone No" style="ellipse;whiteSpace=wrap;html=1;align=center;" vertex="1" parent="1">
          <mxGeometry x="1160" y="553" width="100" height="40" as="geometry" />
        </mxCell>
        <mxCell id="gN2tiasaSfKQ29LLUgoF-29" value="" style="endArrow=none;html=1;rounded=0;entryX=0;entryY=0.5;entryDx=0;entryDy=0;" edge="1" parent="1" target="gN2tiasaSfKQ29LLUgoF-28">
          <mxGeometry relative="1" as="geometry">
            <mxPoint x="1070" y="588" as="sourcePoint" />
            <mxPoint x="1230" y="588" as="targetPoint" />
          </mxGeometry>
        </mxCell>
        <mxCell id="gN2tiasaSfKQ29LLUgoF-30" value="&lt;u&gt;TID&lt;/u&gt;" style="ellipse;whiteSpace=wrap;html=1;align=center;" vertex="1" parent="1">
          <mxGeometry x="500" y="710" width="100" height="40" as="geometry" />
        </mxCell>
        <mxCell id="gN2tiasaSfKQ29LLUgoF-31" value="" style="endArrow=none;html=1;rounded=0;entryX=0;entryY=0;entryDx=0;entryDy=0;" edge="1" parent="1" target="gN2tiasaSfKQ29LLUgoF-30">
          <mxGeometry relative="1" as="geometry">
            <mxPoint x="430" y="660" as="sourcePoint" />
            <mxPoint x="590" y="660" as="targetPoint" />
          </mxGeometry>
        </mxCell>
        <mxCell id="gN2tiasaSfKQ29LLUgoF-32" value="Show" style="shape=rhombus;perimeter=rhombusPerimeter;whiteSpace=wrap;html=1;align=center;" vertex="1" parent="1">
          <mxGeometry x="580" y="-260" width="120" height="60" as="geometry" />
        </mxCell>
        <mxCell id="gN2tiasaSfKQ29LLUgoF-33" value="" style="endArrow=none;html=1;rounded=0;entryX=0.25;entryY=0;entryDx=0;entryDy=0;" edge="1" parent="1" target="uYVosKpST3AzjdCSCV1S-121">
          <mxGeometry relative="1" as="geometry">
            <mxPoint x="700" y="-230.22" as="sourcePoint" />
            <mxPoint x="1070" y="-230" as="targetPoint" />
            <Array as="points">
              <mxPoint x="960" y="-230" />
            </Array>
          </mxGeometry>
        </mxCell>
        <mxCell id="gN2tiasaSfKQ29LLUgoF-34" value="" style="endArrow=none;html=1;rounded=0;exitX=0.673;exitY=-0.027;exitDx=0;exitDy=0;exitPerimeter=0;" edge="1" parent="1" source="uYVosKpST3AzjdCSCV1S-1">
          <mxGeometry relative="1" as="geometry">
            <mxPoint x="180" y="120" as="sourcePoint" />
            <mxPoint x="580" y="-230.48" as="targetPoint" />
            <Array as="points">
              <mxPoint x="240" y="120" />
              <mxPoint x="360" y="120" />
              <mxPoint x="360" y="-230" />
            </Array>
          </mxGeometry>
        </mxCell>
        <mxCell id="gN2tiasaSfKQ29LLUgoF-35" value="M" style="text;html=1;align=center;verticalAlign=middle;resizable=0;points=[];autosize=1;strokeColor=none;fillColor=none;" vertex="1" parent="1">
          <mxGeometry x="935" y="28" width="30" height="30" as="geometry" />
        </mxCell>
        <mxCell id="gN2tiasaSfKQ29LLUgoF-36" value="1" style="text;html=1;align=center;verticalAlign=middle;resizable=0;points=[];autosize=1;strokeColor=none;fillColor=none;" vertex="1" parent="1">
          <mxGeometry x="235" y="248" width="30" height="30" as="geometry" />
        </mxCell>
      </root>
    </mxGraphModel>
  </diagram>
</mxfile>
